<?xml version="1.0" encoding="UTF-8"?>
<svg xmlns="http://www.w3.org/2000/svg" xmlns:xlink="http://www.w3.org/1999/xlink" width="49pt" height="49pt" viewBox="0 0 49 49" version="1.1">
<g id="surface1">
<path style=" stroke:none;fill-rule:nonzero;fill:rgb(100%,100%,100%);fill-opacity:1;" d="M 24.335938 30.152344 L 24.335938 21.472656 C 24.335938 21.472656 27.433594 21.472656 28.648438 21.472656 C 29.867188 21.472656 30.972656 22.585938 30.972656 23.808594 C 30.972656 25.035156 30.972656 30.152344 30.972656 30.152344 L 29.421875 30.152344 C 29.421875 30.152344 29.421875 26.144531 29.421875 24.144531 C 29.421875 23.539062 28.980469 23.03125 28.316406 23.03125 C 27.503906 23.03125 25.882812 23.03125 25.882812 23.03125 L 25.882812 31.265625 Z M 24.335938 30.152344 "/>
<path style=" stroke:none;fill-rule:nonzero;fill:rgb(100%,100%,100%);fill-opacity:1;" d="M 33.847656 30.152344 L 33.847656 21.472656 L 35.394531 21.472656 L 35.394531 30.152344 Z M 33.847656 30.152344 "/>
<path style=" stroke:none;fill-rule:nonzero;fill:rgb(100%,100%,100%);fill-opacity:1;" d="M 33.847656 19.472656 L 35.394531 19.472656 L 35.394531 17.691406 L 33.847656 18.804688 Z M 33.847656 19.472656 "/>
<path style=" stroke:none;fill-rule:nonzero;fill:rgb(100%,100%,100%);fill-opacity:1;" d="M 39.820312 30.152344 L 38.273438 30.152344 L 38.273438 21.472656 L 46.789062 21.472656 C 48.117188 21.472656 49.113281 22.476562 49.113281 23.808594 L 49.113281 30.152344 L 47.5625 31.265625 L 47.5625 24.144531 C 47.5625 23.476562 47.121094 23.03125 46.457031 23.03125 L 44.464844 23.03125 L 44.464844 30.152344 L 42.917969 30.152344 L 42.917969 23.03125 L 39.820312 23.03125 Z M 39.820312 30.152344 "/>
<path style=" stroke:none;fill-rule:nonzero;fill:rgb(95.294118%,83.137255%,0%);fill-opacity:1;" d="M 9.921875 17.691406 C 9.921875 17.691406 9.167969 18.289062 8.398438 18.886719 C 7.609375 18.859375 6.054688 19.039062 5.214844 19.347656 C 4.441406 18.851562 3.761719 18.308594 3.761719 18.308594 C 3.761719 18.308594 3.179688 19.3125 2.8125 19.90625 C 2.269531 20.195312 1.726562 20.519531 1.242188 20.953125 C 0.675781 20.726562 0.0195312 20.453125 0 20.445312 C 0.746094 21.960938 1.25 23.480469 2.617188 24.390625 C 4.792969 20.933594 14.910156 21.253906 17.128906 24.371094 C 18.566406 23.621094 19.125 22 19.6875 20.503906 C 19.628906 20.523438 18.859375 20.78125 18.359375 20.972656 C 18.0625 20.648438 17.363281 20.148438 16.964844 19.90625 C 16.585938 19.207031 16.035156 18.269531 16.035156 18.269531 C 16.035156 18.269531 15.386719 18.757812 14.628906 19.289062 C 13.609375 19.097656 12.375 18.867188 11.339844 18.925781 C 10.632812 18.339844 9.921875 17.691406 9.921875 17.691406 Z M 9.921875 17.691406 "/>
<path style=" stroke:none;fill-rule:nonzero;fill:rgb(100%,91.372549%,32.54902%);fill-opacity:1;" d="M 0.773438 23.667969 C 0.773438 23.667969 1.832031 26.246094 2.570312 28.042969 C 5.6875 32.179688 13.648438 32.46875 17.121094 28.121094 C 17.945312 26.257812 19.050781 23.640625 19.050781 23.640625 C 18.160156 24.96875 16.710938 25.886719 15.820312 26.378906 C 15.183594 26.726562 13.722656 26.941406 13.722656 26.941406 L 9.878906 24.9375 L 6.015625 26.898438 C 6.015625 26.898438 4.570312 26.667969 3.914062 26.359375 C 2.597656 25.648438 1.707031 24.8125 0.773438 23.667969 Z M 0.773438 23.667969 "/>
</g>
</svg>
